Coordinates
version=1
nRows=6
nColumns=46
inDegrees=yes

Units are S.I. units (second, meters, Newtons, ...)
Angles are in degrees.

endheader
time	pelvis_tilt	pelvis_list	pelvis_rotation	pelvis_tx	pelvis_ty	pelvis_tz	bb_angle	bb_tx	bb_ty	bb_tz	hip_flexion_r	hip_adduction_r	hip_rotation_r	knee_angle_r	knee_angle_r_beta	ankle_angle_r	subtalar_angle_r	mtp_angle_r	crank_angle_r	hip_flexion_l	hip_adduction_l	hip_rotation_l	knee_angle_l	knee_angle_l_beta	ankle_angle_l	subtalar_angle_l	mtp_angle_l	crank_angle_l	lumbar_extension	lumbar_bending	lumbar_rotation	arm_flex_r	arm_add_r	arm_rot_r	elbow_flex_r	pro_sup_r	wrist_flex_r	wrist_dev_r	arm_flex_l	arm_add_l	arm_rot_l	elbow_flex_l	pro_sup_l	wrist_flex_l	wrist_dev_l
      0.00500000	    -21.69923045	     -4.38143991	      0.00443851	      0.10906023	      1.12329475	     -0.23913948	      0.00000000	      0.50000000	      0.00000000	      0.25000000	     94.85312303	    -11.64832714	     -6.09331676	     95.10920096	      1.65996871	     21.83382832	      5.39050463	      0.00000000	      0.00000000	     57.72940755	    -14.80377249	     -5.95464315	     65.81589116	      1.14870400	     17.08997909	     12.39954366	      0.00000000	      0.00000000	    -47.14054977	      4.92869903	      4.34559294	     89.65660206	     -4.33807132	     24.35905132	     33.82009427	     23.82602244	      0.00000000	      0.00000000	     89.69409251	      0.00898881	     26.63887916	     28.75038689	     23.06500876	      0.00000000	      0.00000000
      0.01000000	    -21.81571318	     -4.28450580	     -0.00902733	      0.10900749	      1.12308570	     -0.23911549	      0.00000000	      0.50000000	      0.00000000	      0.25000000	     95.03112765	    -11.61531900	     -5.99477824	     95.10754338	      1.65993978	     21.61864208	      4.83482545	      0.00000000	      0.00000000	     57.83201500	    -14.69364059	     -6.01396083	     65.80143392	      1.14845167	     16.95114732	     11.81659666	      0.00000000	      0.00000000	    -46.93003915	      4.85529319	      4.28611333	     89.66781105	     -3.91599704	     23.47447855	     32.68034100	     26.14527322	      0.00000000	      0.00000000	     89.70473533	      0.36478364	     25.89225960	     27.77022837	     25.25555182	      0.00000000	      0.00000000
      0.01500000	    -21.83128172	     -4.28368737	      0.03535301	      0.10897747	      1.12304756	     -0.23924044	      0.00000000	      0.50000000	      0.00000000	      0.25000000	     95.05176010	    -11.66767173	     -5.98475406	     95.11830468	      1.66012760	     21.63456933	      4.88718739	      0.00000000	      0.00000000	     57.86612206	    -14.63267236	     -5.96999418	     65.80409227	      1.14849807	     16.90348908	     11.73811727	      0.00000000	      0.00000000	    -46.91979864	      4.89454765	      4.22061581	     89.66964628	     -3.83470969	     23.18705534	     32.40684390	     27.63340308	      0.00000000	      0.00000000	     89.70476775	      0.39999223	     25.39840394	     27.56197254	     26.58057893	      0.00000000	      0.00000000
      0.02000000	    -21.92659276	     -4.40069681	     -0.04637203	      0.10889428	      1.12261398	     -0.23893197	      0.00000000	      0.50000000	      0.00000000	      0.25000000	     95.16264864	    -11.55578248	     -6.06602544	     95.13701772	      1.66045420	     21.66748592	      5.10652039	      0.00000000	      0.00000000	     58.00186152	    -14.65375850	     -5.69010427	     65.82853438	      1.14892467	     17.09423107	     12.38726628	      0.00000000	      0.00000000	    -46.88562114	      4.97245456	      4.33733410	     89.66018549	     -3.79546884	     22.90375959	     32.76746576	     28.44470917	      0.00000000	      0.00000000	     89.69309429	      0.22851811	     25.15263997	     27.88421359	     27.37245258	      0.00000000	      0.00000000
      0.02500000	    -21.99473192	     -4.29884815	      0.03772844	      0.10867080	      1.12262614	     -0.23933522	      0.00000000	      0.50000000	      0.00000000	      0.25000000	     95.28266685	    -11.58294378	     -5.92581966	     95.13284268	      1.66038133	     21.51482249	      4.54813446	      0.00000000	      0.00000000	     58.13138767	    -14.65059331	     -5.88027607	     65.93330965	      1.15075334	     16.97579937	     11.67107136	      0.00000000	      0.00000000	    -46.68263019	      4.90806208	      4.24381426	     89.66649013	     -3.81371211	     23.23726853	     32.04418487	     28.61560338	      0.00000000	      0.00000000	     89.70265925	      0.18478289	     26.12571226	     27.33022652	     27.54031654	      0.00000000	      0.00000000
      0.03000000	    -21.99750387	     -4.30845923	      0.04202720	      0.10867037	      1.12263144	     -0.23927363	      0.00000000	      0.50000000	      0.00000000	      0.25000000	     95.27417505	    -11.60439356	     -5.93358135	     95.12960482	      1.66032482	     21.56624120	      4.70625627	      0.00000000	      0.00000000	     58.13886258	    -14.65109509	     -5.85855727	     65.93310331	      1.15074974	     16.97651441	     11.85307941	      0.00000000	      0.00000000	    -46.67528552	      4.95935705	      4.21769182	     89.66223804	     -3.99849809	     24.59153365	     33.21329206	     22.27490072	      0.00000000	      0.00000000	     89.70781443	     -0.77455859	     30.20303638	     28.73105493	     19.94597880	      0.00000000	      0.00000000
